<?xml version="1.0" standalone="no"?>
<!DOCTYPE svg PUBLIC "-//W3C//DTD SVG 1.1//EN" "http://www.w3.org/Graphics/SVG/1.1/DTD/svg11.dtd" >
<svg xmlns="http://www.w3.org/2000/svg">
<metadata></metadata>
<defs>
<font id="myanmar_censusregular" horiz-adv-x="1017" >
<font-face units-per-em="2048" ascent="1374" descent="-674" />
<missing-glyph horiz-adv-x="561" />
<glyph horiz-adv-x="0" />
<glyph unicode="&#xd;" horiz-adv-x="561" />
<glyph unicode=" "  horiz-adv-x="561" />
<glyph unicode="&#x09;" horiz-adv-x="561" />
<glyph unicode="&#xa0;" horiz-adv-x="561" />
<glyph unicode="!" horiz-adv-x="591" d="M174 102q0 60 36 95.5t87 35.5q49 0 85 -35.5t36 -95.5q0 -55 -36 -91t-85 -36q-51 0 -87 36t-36 91zM211 1372h170l-4 -192l-23 -774h-117l-22 774z" />
<glyph unicode="&#x22;" horiz-adv-x="872" d="M163 1413h180l-6 -188l-33 -342h-102l-33 342zM525 1413h179l-4 -188l-33 -342h-105l-32 342z" />
<glyph unicode="#" d="M71 418v117h178l37 303h-174v118h188l47 375h109l-47 -375h272l49 375h109l-49 -375h166v-118h-178l-37 -303h174v-117h-189l-51 -418h-108l49 418h-271l-51 -418h-110l51 418h-164zM360 535h270l37 303h-270z" />
<glyph unicode="$" d="M106 135l78 117q65 -57 144 -97t173 -40q115 0 171.5 57t56.5 154q0 82 -42 136t-105.5 94t-138.5 75t-138.5 80t-105.5 109.5t-42 164.5q0 137 81 228.5t216 113.5v205h123v-203q98 -10 167 -53t124 -102l-90 -101q-58 55 -112 86t-138 31q-94 0 -149.5 -53.5 t-55.5 -143.5q0 -73 42 -120.5t105.5 -83t138.5 -69.5t138.5 -82t105 -118.5t41.5 -181.5q0 -148 -85 -242t-232 -114v-207h-123v202q-98 11 -190 55t-158 103z" />
<glyph unicode="%" horiz-adv-x="1687" d="M71 946q0 205 83 313.5t222 108.5q137 0 221 -108.5t84 -313.5t-84 -315.5t-221 -110.5q-139 0 -222 110.5t-83 315.5zM198 946q0 -160 49 -240.5t129 -80.5q78 0 127 80.5t49 240.5q0 162 -49 240t-127 78q-80 0 -129 -78t-49 -240zM415 -25l741 1393h113l-741 -1393 h-113zM1007 401q0 203 83 312.5t222 109.5q137 0 221 -109.5t84 -312.5q0 -204 -84 -315t-221 -111q-139 0 -222 111t-83 315zM1134 401q0 -159 50 -240t128 -81t127 81t49 240q0 160 -49 239t-127 79t-128 -79t-50 -239z" />
<glyph unicode="&#x26;" horiz-adv-x="1247" d="M65 348q0 68 21.5 123t58.5 102.5t85 87t99 74.5q-41 84 -64.5 163t-23.5 153q0 67 22.5 124.5t63.5 100.5t98.5 67.5t126.5 24.5q125 0 195 -73.5t70 -192.5q0 -66 -27 -121t-70 -103.5t-97 -90.5t-109 -82q65 -105 154 -201t185 -176q62 84 110 182t79 215h158 q-41 -133 -98.5 -254t-137.5 -227q70 -47 133.5 -80t118.5 -49l-45 -140q-72 21 -149.5 59t-159.5 95q-78 -70 -173.5 -112t-213.5 -42q-93 0 -167.5 28t-129 77t-84 117.5t-29.5 150.5zM229 358q0 -55 20.5 -101t56 -79t84 -50t103.5 -17q70 0 133.5 28.5t122.5 79.5 q-98 86 -189.5 188.5t-162.5 210.5q-72 -57 -120 -119.5t-48 -140.5zM387 1053q0 -56 17 -115t46 -121q45 31 87 62.5t74 65.5t50 72t18 83q0 59 -29.5 103t-97.5 44q-75 0 -120 -55t-45 -139z" />
<glyph unicode="'" horiz-adv-x="509" d="M163 1413h180l-6 -188l-33 -342h-102l-33 342z" />
<glyph unicode="(" horiz-adv-x="620" d="M167 569q0 271 71.5 497t198.5 433l105 -49q-119 -197 -177.5 -421t-58.5 -460q0 -235 58.5 -459.5t177.5 -420.5l-105 -49q-127 204 -198.5 431.5t-71.5 497.5z" />
<glyph unicode=")" horiz-adv-x="620" d="M77 -311q119 196 177.5 420.5t58.5 459.5q0 236 -58.5 460t-177.5 421l104 49q127 -207 199 -433t72 -497q0 -270 -72 -497.5t-199 -431.5z" />
<glyph unicode="*" horiz-adv-x="856" d="M118 1194l31 94l209 -51l18 221h100l19 -219l211 49l30 -94l-198 -82l115 -192l-80 -60l-146 176l-145 -176l-82 60l117 192z" />
<glyph unicode="+" d="M69 612v127h373v400h133v-400h373v-127h-373v-399h-133v399h-373z" />
<glyph unicode="," horiz-adv-x="509" d="M96 -250q86 39 135 102.5t49 147.5q-6 -2 -20 -2q-49 0 -85 29.5t-36 87.5q0 55 37 86.5t88 31.5q65 0 103 -53t38 -145q0 -133 -71.5 -231.5t-196.5 -151.5z" />
<glyph unicode="-" horiz-adv-x="636" d="M83 449v129h471v-129h-471z" />
<glyph unicode="." horiz-adv-x="509" d="M133 102q0 60 36 95.5t87 35.5q49 0 85 -35.5t36 -95.5q0 -55 -36 -91t-85 -36q-51 0 -87 36t-36 91z" />
<glyph unicode="/" horiz-adv-x="716" d="M20 -328l547 1782h123l-547 -1782h-123z" />
<glyph unicode="0" d="M90 657q0 330 110.5 502t309.5 172q196 0 307 -172t111 -502q0 -329 -111 -505.5t-307 -176.5q-199 0 -309.5 176.5t-110.5 505.5zM254 657q0 -286 70.5 -416t185.5 -130q57 0 103 31.5t80 98t52.5 170t18.5 246.5q0 144 -18.5 246.5t-52.5 167t-80 95t-103 30.5 q-58 0 -105 -30.5t-80.5 -95t-52 -167t-18.5 -246.5z" />
<glyph unicode="1" d="M161 0v139h299v963h-238v108q91 17 157.5 40.5t119.5 56.5h129v-1168h270v-139h-737z" />
<glyph unicode="2" d="M73 1133q82 90 174 144t221 54q183 0 287 -105.5t104 -279.5q0 -92 -39.5 -185t-110.5 -192.5t-168 -207t-214 -228.5q53 4 110.5 8t108.5 4h379v-145h-844v100q148 148 262.5 266.5t192.5 220t119 186.5t41 165q0 113 -61.5 184.5t-186.5 71.5q-82 0 -151.5 -46 t-127.5 -112z" />
<glyph unicode="3" d="M53 160l86 110q59 -61 138 -108t196 -47q119 0 194.5 64.5t75.5 174.5q0 58 -21.5 106t-70.5 83t-129 53t-197 18v129q105 0 175.5 18.5t114.5 51.5t62.5 78t18.5 96q0 96 -60.5 151.5t-164.5 55.5q-82 0 -150.5 -37t-128.5 -96l-90 106q76 72 167 118t208 46 q86 0 157.5 -22.5t124 -64.5t81 -103.5t28.5 -141.5q0 -118 -65.5 -194t-171.5 -117v-8q59 -14 110 -42t90 -70t60.5 -97t21.5 -123q0 -86 -33.5 -155.5t-92 -117.5t-136.5 -74t-168 -26q-78 0 -142.5 15.5t-117.5 41t-95 58.5t-75 70z" />
<glyph unicode="4" d="M34 360v111l559 836h189v-811h178v-136h-178v-360h-160v360h-588zM212 496h410v378q0 54 3 126.5t7 125.5h-8q-25 -47 -51.5 -92t-55.5 -92z" />
<glyph unicode="5" d="M51 154l82 110q57 -59 136 -104t194 -45q59 0 111 21.5t91 60.5t61.5 94t22.5 123q0 135 -75.5 210.5t-202.5 75.5q-68 0 -116 -20.5t-107 -58.5l-91 57l44 629h653v-146h-506l-35 -387q47 25 94 39t107 14q84 0 157.5 -24.5t129 -74.5t87 -127t31.5 -183 q0 -107 -36.5 -189t-98 -138t-140.5 -86t-165 -30q-78 0 -142.5 15.5t-116.5 40t-94 56.5t-75 67z" />
<glyph unicode="6" d="M98 604q0 197 41 335t110.5 225t158.5 127t188 40q106 0 183 -40t132 -99l-94 -105q-41 48 -97.5 75.5t-117.5 27.5q-68 0 -129.5 -28.5t-108.5 -94.5t-75.5 -171t-30.5 -261q61 76 143 120t162 44q170 0 271.5 -100.5t101.5 -303.5q0 -94 -31 -171t-84 -132t-123 -86 t-149 -31q-97 0 -179 39t-142 118t-95 196.5t-35 275.5zM262 500q16 -193 89 -292t198 -99q49 0 90 20.5t71.5 58t48 90t17.5 117.5q0 129 -59.5 203t-182.5 74q-61 0 -134 -40t-138 -132z" />
<glyph unicode="7" d="M90 1161v146h842v-105q-117 -147 -189.5 -282.5t-115.5 -275.5t-62.5 -297t-28.5 -347h-174q9 184 33.5 338t68.5 292t112.5 267t164.5 264h-651z" />
<glyph unicode="8" d="M83 334q0 63 21.5 117.5t55.5 98.5t78 78t91 58v8q-72 51 -127.5 124t-55.5 177q0 76 29 137.5t78 105.5t116.5 68.5t147.5 24.5q86 0 153.5 -25.5t116 -71.5t74 -110.5t25.5 -140.5q0 -51 -17.5 -98t-43 -88t-57.5 -74t-62 -55v-9q43 -24 84 -56t72.5 -71.5t51 -91 t19.5 -116.5q0 -74 -31 -137.5t-86 -110.5t-133 -74t-172 -27q-92 0 -171 27t-135 75t-89 113.5t-33 143.5zM235 350q0 -55 21.5 -100t59 -79t89 -52.5t110.5 -18.5q115 0 185.5 63.5t70.5 166.5q0 63 -28.5 108t-78 79t-114 61.5t-133.5 56.5q-78 -53 -130 -124t-52 -161z M302 995q0 -59 24.5 -101t66.5 -75t96.5 -58.5t113.5 -47.5q66 59 101.5 124.5t35.5 137.5q0 98 -59 164.5t-168 66.5q-92 0 -151.5 -57t-59.5 -154z" />
<glyph unicode="9" d="M81 911q0 95 30.5 171.5t83 132t123 86t148.5 30.5q96 0 179 -39t143.5 -117.5t94.5 -196.5t34 -276q0 -196 -41 -334.5t-111 -225.5t-159 -127t-187 -40q-105 0 -183.5 39t-131.5 99l94 106q41 -47 97 -75.5t118 -28.5q69 0 130.5 28.5t108.5 95t76 173t31 264.5 q-62 -78 -143.5 -123t-163.5 -45q-170 0 -270.5 100.5t-100.5 302.5zM239 911q0 -129 59 -202.5t182 -73.5q64 0 136.5 40t138.5 134q-17 192 -90.5 290.5t-198.5 98.5q-47 0 -89 -20.5t-72.5 -58.5t-48 -91t-17.5 -117z" />
<glyph unicode=":" horiz-adv-x="509" d="M133 102q0 60 36 95.5t87 35.5q49 0 85 -35.5t36 -95.5q0 -55 -36 -91t-85 -36q-51 0 -87 36t-36 91zM133 842q0 59 36 94t87 35q49 0 85 -35t36 -94q0 -58 -36 -92.5t-85 -34.5q-51 0 -87 34.5t-36 92.5z" />
<glyph unicode=";" horiz-adv-x="509" d="M96 -250q86 39 135 102.5t49 147.5q-6 -2 -20 -2q-49 0 -85 29.5t-36 87.5q0 55 37 86.5t88 31.5q65 0 103 -53t38 -145q0 -133 -71.5 -231.5t-196.5 -151.5zM133 842q0 59 36 94t87 35q49 0 85 -35t36 -94q0 -58 -36 -92.5t-85 -34.5q-51 0 -87 34.5t-36 92.5z" />
<glyph unicode="&#x3c;" d="M69 612v136l879 344v-146l-433 -160l-274 -102v-8l274 -103l433 -159v-146z" />
<glyph unicode="=" d="M69 393v127h879v-127h-879zM69 831v127h879v-127h-879z" />
<glyph unicode="&#x3e;" d="M69 268v146l432 159l275 103v8l-275 102l-432 160v146l879 -344v-136z" />
<glyph unicode="?" horiz-adv-x="870" d="M77 1227q66 73 149.5 121.5t194.5 48.5q160 0 255 -87t95 -241q0 -68 -24.5 -123t-60.5 -104t-75.5 -97.5t-73.5 -99.5t-52.5 -109.5t-10.5 -129.5h-147q-12 79 5 143.5t48 119t71 101.5t74.5 93t58 93.5t23.5 102.5q0 82 -50 140t-148 58q-68 0 -128.5 -31.5 t-107.5 -86.5zM284 102q0 60 34.5 95.5t86.5 35.5q51 0 87 -35.5t36 -95.5q0 -55 -36 -91t-87 -36q-52 0 -86.5 36t-34.5 91z" />
<glyph unicode="@" horiz-adv-x="1734" d="M104 416q0 205 68.5 372.5t186.5 286.5t272.5 183.5t326.5 64.5q156 0 279.5 -49t211 -138t134.5 -214t47 -277q0 -135 -38 -236.5t-97.5 -170t-132 -103.5t-142.5 -35q-84 0 -142.5 39t-68.5 117h-4q-51 -59 -116.5 -99t-133.5 -40q-104 0 -174.5 73.5t-70.5 215.5 q0 81 27.5 166t78.5 154t124 112t163 43q53 0 94 -23.5t70 -75.5h4l22 82h113l-80 -409q-61 -240 111 -240q49 0 97 28.5t88 83t64.5 133.5t24.5 179q0 123 -36 228.5t-107.5 181t-178 118.5t-245.5 43q-138 0 -267 -56t-229 -158.5t-160.5 -248t-60.5 -325.5 q0 -150 46 -266.5t128 -196.5t193.5 -122t242.5 -42q94 0 178 25.5t154 66.5l45 -100q-174 -104 -389 -104q-152 0 -283 47t-228 140t-153.5 230.5t-56.5 315.5zM645 416q0 -99 41 -142t102 -43q43 0 89 29t99 92l60 326q-29 47 -59.5 66.5t-71.5 19.5q-62 0 -110 -33 t-82 -84t-51 -112.5t-17 -118.5z" />
<glyph unicode="A" horiz-adv-x="1114" d="M6 0l455 1343h192l455 -1343h-182l-127 410h-490l-129 -410h-174zM352 547h404l-64 205q-37 112 -69.5 223.5t-65.5 228.5h-8q-31 -117 -64 -228.5t-69 -223.5z" />
<glyph unicode="B" horiz-adv-x="1204" d="M184 0v1343h399q103 0 188 -18t145.5 -57t94 -101.5t33.5 -150.5q0 -101 -57.5 -181.5t-175.5 -111.5v-8q147 -23 229 -103t82 -219q0 -98 -37 -172t-104.5 -123t-161.5 -73.5t-207 -24.5h-428zM354 135h233q175 0 271 64.5t96 201.5q0 125 -94 183.5t-273 58.5h-233 v-508zM354 770h199q174 0 248.5 59.5t74.5 171.5q0 111 -78.5 159t-236.5 48h-207v-438z" />
<glyph unicode="C" horiz-adv-x="1169" d="M106 672q0 162 45 291t125 219t189.5 138t238.5 48q123 0 215 -50t152 -116l-97 -108q-53 57 -117.5 91t-150.5 34q-96 0 -174 -38t-133 -109t-86 -171t-31 -225q0 -127 30 -228.5t83 -173t130 -110.5t173 -39q98 0 171 39t138 110l96 -104q-79 -92 -179.5 -143.5 t-229.5 -51.5q-127 0 -234.5 47.5t-186.5 136.5t-123 219t-44 294z" />
<glyph unicode="D" horiz-adv-x="1259" d="M184 0v1343h336q311 0 473 -172t162 -493q0 -160 -41 -286t-121 -213t-196.5 -133t-268.5 -46h-344zM354 139h154q235 0 353 141.5t118 397.5t-118 391t-353 135h-154v-1065z" />
<glyph unicode="E" horiz-adv-x="1079" d="M184 0v1343h774v-143h-604v-422h510v-145h-510v-488h625v-145h-795z" />
<glyph unicode="F" horiz-adv-x="1011" d="M184 0v1343h774v-143h-604v-455h512v-143h-512v-602h-170z" />
<glyph unicode="G" horiz-adv-x="1263" d="M106 672q0 162 46 291t129 219t195.5 138t247.5 48q140 0 233 -52t153 -114l-97 -108q-51 53 -117.5 89t-168.5 36q-103 0 -185 -38t-139 -109t-89 -171t-32 -225q0 -127 30 -228.5t86 -173t139 -110.5t192 -39q71 0 135.5 21.5t105.5 58.5v350h-284v141h440v-565 q-66 -68 -173.5 -112t-242.5 -44q-133 0 -243.5 47.5t-190.5 136.5t-125 219t-45 294z" />
<glyph unicode="H" horiz-adv-x="1335" d="M184 0v1343h170v-563h625v563h172v-1343h-172v633h-625v-633h-170z" />
<glyph unicode="I" horiz-adv-x="538" d="M184 0v1343h170v-1343h-170z" />
<glyph unicode="J" horiz-adv-x="983" d="M63 190l123 86q45 -79 102.5 -115t128.5 -36q109 0 162 66.5t53 220.5v931h172v-948q0 -86 -21.5 -162.5t-65.5 -134t-114.5 -90.5t-168.5 -33q-252 0 -371 215z" />
<glyph unicode="K" horiz-adv-x="1185" d="M184 0v1343h170v-673h6l559 673h193l-420 -512l485 -831h-190l-402 698l-231 -272v-426h-170z" />
<glyph unicode="L" horiz-adv-x="995" d="M184 0v1343h170v-1198h588v-145h-758z" />
<glyph unicode="M" horiz-adv-x="1488" d="M184 0v1343h201l260 -720l98 -275h8l95 275l258 720h200v-1343h-162v739q0 90 7.5 199t15.5 199h-8l-109 -299l-258 -703h-96l-260 703l-107 299h-8q6 -90 14.5 -199t8.5 -199v-739h-158z" />
<glyph unicode="N" horiz-adv-x="1325" d="M184 0v1343h176l486 -843l145 -279h8q-6 103 -13 212.5t-7 215.5v694h161v-1343h-176l-487 846l-146 276h-8q8 -102 15.5 -207.5t7.5 -212.5v-702h-162z" />
<glyph unicode="O" horiz-adv-x="1359" d="M106 678q0 162 42 290t118 217t181 136t232 47t232.5 -48t182.5 -137t119 -217t42 -288q0 -162 -42 -292t-119 -221t-182.5 -140.5t-232.5 -49.5t-232 49.5t-181 140.5t-118 221t-42 292zM282 678q0 -127 28.5 -228.5t81 -174t125 -111.5t162.5 -39q91 0 163.5 39 t124.5 111.5t81 174t29 228.5q0 125 -29 225.5t-81 170t-124.5 107.5t-163.5 38q-90 0 -162.5 -38t-125 -107.5t-81 -170t-28.5 -225.5z" />
<glyph unicode="P" horiz-adv-x="1179" d="M184 0v1343h412q110 0 202.5 -20t157 -66.5t100 -122t35.5 -186.5q0 -106 -35.5 -184t-101 -129t-157 -77t-201.5 -26h-242v-532h-170zM354 672h221q176 0 261 66.5t85 209.5q0 146 -86 202t-260 56h-221v-534z" />
<glyph unicode="Q" horiz-adv-x="1359" d="M106 678q0 162 42 290t118 217t181 136t232 47t232.5 -48t182.5 -137t119 -217t42 -288q0 -146 -34 -265.5t-96.5 -208.5t-150.5 -145.5t-194 -74.5q47 -90 133 -133.5t197 -43.5q45 0 78.5 6.5t62.5 14.5l33 -133q-31 -10 -82.5 -20.5t-110.5 -10.5q-186 0 -311 89 t-185 229q-110 14 -200 69t-154.5 145.5t-99.5 212t-35 269.5zM282 678q0 -129 28.5 -232.5t81 -177t125 -112.5t162.5 -39q91 0 163.5 39t124.5 112.5t81 177t29 232.5q0 125 -29 225.5t-81 170t-124.5 107.5t-163.5 38q-90 0 -162.5 -38t-125 -107.5t-81 -170 t-28.5 -225.5z" />
<glyph unicode="R" horiz-adv-x="1189" d="M184 0v1343h420q102 0 189 -19t149.5 -64.5t97.5 -117t35 -175.5q0 -158 -82 -252t-219 -129l340 -586h-193l-323 567h-244v-567h-170zM354 707h225q158 0 242 64.5t84 195.5q0 133 -84 186t-242 53h-225v-499z" />
<glyph unicode="S" horiz-adv-x="1093" d="M86 174l102 119q72 -76 169.5 -122t201.5 -46q133 0 207 60.5t74 158.5q0 51 -17.5 87t-47.5 61.5t-70.5 46t-88.5 43.5l-192 84q-47 20 -96 48.5t-88 69.5t-63.5 97.5t-24.5 130.5q0 75 31.5 141t88 114t133 74.5t168.5 26.5q121 0 223.5 -46t174.5 -120l-92 -110 q-62 59 -136.5 93t-169.5 34q-112 0 -180.5 -52.5t-68.5 -144.5q0 -49 19 -83t52 -59.5t72 -45t80 -35.5l190 -82q58 -25 109 -56.5t88 -73.5t58.5 -98.5t21.5 -130.5q0 -79 -32 -149t-91.5 -122t-143 -82t-190.5 -30q-141 0 -262 53.5t-209 145.5z" />
<glyph unicode="T" horiz-adv-x="1097" d="M57 1200v143h983v-143h-405v-1200h-172v1200h-406z" />
<glyph unicode="U" horiz-adv-x="1320" d="M178 555v788h170v-792q0 -121 24.5 -203t66.5 -131t99.5 -70.5t122.5 -21.5q68 0 125.5 21.5t100.5 70.5t67.5 131t24.5 203v792h164v-788q0 -162 -37 -272.5t-101.5 -179t-152.5 -98.5t-191 -30q-102 0 -191 30t-153.5 98.5t-101.5 179t-37 272.5z" />
<glyph unicode="V" horiz-adv-x="1054" d="M0 1343h182l215 -725q37 -120 64.5 -222.5t66.5 -221.5h9q36 119 65 221.5t64 222.5l215 725h174l-426 -1343h-199z" />
<glyph unicode="W" horiz-adv-x="1609" d="M47 1343h176l141 -731q19 -110 39.5 -216.5t38.5 -217.5h8q23 111 47.5 218.5t47.5 215.5l186 731h156l186 -731q25 -106 49.5 -214.5t48.5 -219.5h9q18 111 36.5 218.5t38.5 215.5l142 731h163l-278 -1343h-205l-203 809q-18 78 -33.5 152.5t-31.5 152.5h-8 q-17 -78 -34.5 -152.5t-33.5 -152.5l-199 -809h-202z" />
<glyph unicode="X" horiz-adv-x="1050" d="M30 0l391 694l-364 649h188l182 -344q27 -47 50.5 -91t54.5 -103h8q29 59 50.5 103t45.5 91l178 344h181l-367 -657l391 -686h-188l-197 362q-26 50 -54 102t-61 114h-8q-28 -62 -55 -114t-51 -102l-195 -362h-180z" />
<glyph unicode="Y" horiz-adv-x="974" d="M-2 1343h182l174 -378q33 -74 64 -145.5t65 -147.5h9q34 76 69 147.5t66 145.5l172 378h178l-404 -823v-520h-172v520z" />
<glyph unicode="Z" horiz-adv-x="1103" d="M92 0v102l707 1098h-644v143h857v-100l-709 -1098h715v-145h-926z" />
<glyph unicode="[" horiz-adv-x="620" d="M192 -311v1761h367v-96h-240v-1569h240v-96h-367z" />
<glyph unicode="\" horiz-adv-x="716" d="M28 1454h121l547 -1782h-121z" />
<glyph unicode="]" horiz-adv-x="620" d="M63 -215h238v1569h-238v96h365v-1761h-365v96z" />
<glyph unicode="^" d="M122 582l311 790h150l311 -790h-147l-133 360l-101 272h-8l-102 -272l-134 -360h-147z" />
<glyph unicode="_" horiz-adv-x="1024" d="M24 -145h975v-113h-975v113z" />
<glyph unicode="`" horiz-adv-x="1110" d="M327 1462h176l184 -288h-129z" />
<glyph unicode="a" horiz-adv-x="1048" d="M118 258q0 164 146.5 251t465.5 122q0 47 -9 92t-32.5 80t-62.5 56.5t-100 21.5q-89 0 -163.5 -33t-133.5 -74l-68 117q70 45 170 87t221 42q182 0 264 -111.5t82 -298.5v-610h-139l-14 119h-4q-72 -60 -155 -102t-175 -42q-127 0 -210 74t-83 209zM284 270 q0 -86 50 -122.5t124 -36.5q72 0 136.5 33.5t135.5 99.5v276q-125 -16 -211 -38.5t-138 -53.5t-74.5 -71t-22.5 -87z" />
<glyph unicode="b" horiz-adv-x="1136" d="M167 0v1458h168v-397l-4 -180q67 59 147 99t164 40q96 0 170 -36t124 -102.5t75.5 -159.5t25.5 -208q0 -127 -34.5 -227.5t-94 -170t-137.5 -105.5t-164 -36q-69 0 -144 32t-140 91h-6l-15 -98h-135zM335 221q65 -57 129.5 -80.5t114.5 -23.5q61 0 113.5 27.5t90 77.5 t59 124t21.5 166q0 82 -14 149.5t-46 115.5t-82 75t-120 27q-121 0 -266 -136v-522z" />
<glyph unicode="c" horiz-adv-x="933" d="M94 496q0 125 39 222t104.5 164.5t152.5 102.5t183 35q99 0 169.5 -36t121.5 -83l-84 -108q-45 38 -93 63t-108 25q-67 0 -124.5 -28t-98.5 -79t-64.5 -121.5t-23.5 -156.5t22.5 -156t62.5 -120t97.5 -77.5t124.5 -27.5q72 0 130.5 29.5t103.5 70.5l76 -111 q-68 -59 -151 -94t-173 -35q-98 0 -184 35t-148.5 101.5t-98.5 164t-36 220.5z" />
<glyph unicode="d" horiz-adv-x="1136" d="M96 496q0 120 36 217.5t95 165t137 104.5t164 37t149.5 -31t129.5 -84l-9 170v383h170v-1458h-139l-14 117h-6q-60 -58 -136.5 -100t-164.5 -42q-189 0 -300.5 135.5t-111.5 385.5zM270 498q0 -181 71.5 -281t203.5 -100q69 0 130.5 33.5t122.5 103.5v520 q-63 57 -121.5 81t-119.5 24q-60 0 -112 -28t-91 -78t-61.5 -119.5t-22.5 -155.5z" />
<glyph unicode="e" horiz-adv-x="1015" d="M94 496q0 122 38 219.5t100.5 165t142 103.5t165.5 36q95 0 169.5 -33t125 -94.5t77 -147.5t26.5 -192q0 -55 -6 -92h-672q10 -162 99 -256t233 -94q71 0 131.5 21.5t115.5 55.5l60 -110q-66 -41 -145.5 -72t-182.5 -31q-100 0 -187 36t-151.5 102.5t-101.5 163 t-37 219.5zM258 571h532q0 154 -64.5 235t-180.5 81q-54 0 -102 -21.5t-87 -61.5t-64.5 -98.5t-33.5 -134.5z" />
<glyph unicode="f" horiz-adv-x="598" d="M61 858v127l135 10v158q0 154 70.5 242t220.5 88q47 0 89 -9.5t77 -23.5l-37 -129q-55 25 -113 25q-139 0 -139 -193v-158h211v-137h-211v-858h-168v858h-135z" />
<glyph unicode="g" horiz-adv-x="1032" d="M92 -190q0 63 39 120.5t106 104.5v8q-36 23 -62 62.5t-26 99.5q0 63 35 110t74 74v8q-49 41 -89 109.5t-40 159.5q0 82 29.5 147.5t81 111.5t120 70.5t144.5 24.5q41 0 76.5 -7t64.5 -18h346v-129h-205q35 -35 58.5 -88t23.5 -116q0 -80 -28.5 -144.5t-77.5 -108.5 t-116 -69t-142 -25q-37 0 -76 9.5t-74 25.5q-26 -22 -44.5 -50t-18.5 -69q0 -47 36.5 -77.5t139.5 -30.5h192q174 0 261 -56.5t87 -181.5q0 -69 -34.5 -131.5t-100 -109.5t-159 -75t-209.5 -28q-93 0 -168.5 17.5t-130 52.5t-84 84t-29.5 115zM239 -168q0 -80 77 -127 t212 -47q72 0 130.5 17.5t99.5 45t63.5 64.5t22.5 76q0 69 -51.5 96t-149.5 27h-172q-29 0 -62.5 3t-66.5 13q-53 -39 -78 -82t-25 -86zM293 666q0 -56 16 -100t46 -74.5t68 -47t81 -16.5t80.5 16.5t67.5 47t46.5 74.5t16.5 100q0 110 -61.5 170.5t-149.5 60.5t-149.5 -60.5 t-61.5 -170.5z" />
<glyph unicode="h" horiz-adv-x="1114" d="M167 0v1458h168v-397l-6 -205q71 68 149 116t183 48q157 0 230 -98.5t73 -290.5v-631h-168v608q0 142 -45 204t-144 62q-78 0 -137 -38.5t-135 -114.5v-721h-168z" />
<glyph unicode="i" horiz-adv-x="503" d="M137 1309q0 49 34 78.5t83 29.5t82.5 -29.5t33.5 -78.5q0 -47 -33.5 -78t-82.5 -31t-83 31t-34 78zM168 0v995h168v-995h-168z" />
<glyph unicode="j" horiz-adv-x="505" d="M-81 -418l35 127q18 -6 42.5 -11t51.5 -5q74 0 98.5 51t24.5 143v1108h168v-1108q0 -151 -61.5 -241t-211.5 -90q-47 0 -83.5 8t-63.5 18zM140 1309q0 49 34 78.5t83 29.5q47 0 81 -29.5t34 -78.5q0 -47 -34 -78t-81 -31q-49 0 -83 31t-34 78z" />
<glyph unicode="k" horiz-adv-x="1013" d="M167 0v1458h166v-987h6l424 524h186l-333 -399l378 -596h-184l-291 479l-186 -217v-262h-166z" />
<glyph unicode="l" horiz-adv-x="522" d="M167 201v1257h168v-1270q0 -41 14.5 -57t32.5 -16h15.5t21.5 4l22 -127q-16 -8 -38.5 -12.5t-57.5 -4.5q-96 0 -137 57.5t-41 168.5z" />
<glyph unicode="m" horiz-adv-x="1697" d="M167 0v995h139l15 -143h6q65 72 142 120t167 48q115 0 179.5 -50t94.5 -141q78 86 157 138.5t171 52.5q154 0 228.5 -98.5t74.5 -290.5v-631h-168v608q0 142 -45 204t-139 62q-113 0 -250 -153v-721h-168v608q0 142 -45 204t-141 62q-113 0 -250 -153v-721h-168z" />
<glyph unicode="n" horiz-adv-x="1120" d="M167 0v995h139l15 -143h6q71 72 150 120t184 48q157 0 230 -98.5t73 -290.5v-631h-168v608q0 142 -45 204t-144 62q-78 0 -137 -38.5t-135 -114.5v-721h-168z" />
<glyph unicode="o" horiz-adv-x="1110" d="M94 496q0 125 38 222t101.5 164.5t146.5 102.5t175 35t175 -35t146.5 -102.5t101.5 -164.5t38 -222q0 -123 -38 -220.5t-101.5 -164t-146.5 -101.5t-175 -35t-175 35t-146.5 101.5t-101.5 164t-38 220.5zM268 496q0 -86 20.5 -156t58.5 -120t91 -77.5t117 -27.5 q63 0 116.5 27.5t91.5 77.5t58.5 120t20.5 156t-20.5 156.5t-58.5 121.5t-91.5 79t-116.5 28q-64 0 -117 -28t-91 -79t-58.5 -121.5t-20.5 -156.5z" />
<glyph unicode="p" horiz-adv-x="1136" d="M167 -420v1415h139l15 -114h6q67 57 148 98t169 41q96 0 170 -36t123 -102.5t74.5 -159.5t25.5 -210q0 -127 -34.5 -226.5t-94 -169t-137.5 -105.5t-164 -36q-69 0 -138 31t-138 84l4 -174v-336h-168zM335 221q68 -57 131 -80.5t113 -23.5q61 0 113.5 27.5t90 77.5 t59 124t21.5 166q0 82 -14 149.5t-46 115.5t-82 75t-120 27q-63 0 -127.5 -35t-138.5 -101v-522z" />
<glyph unicode="q" horiz-adv-x="1126" d="M96 496q0 120 36 217.5t95 165t137 104.5t164 37t151.5 -29.5t133.5 -89.5h4l16 94h135v-1415h-170v354l9 177q-60 -56 -136.5 -96t-162.5 -40q-189 0 -300.5 135.5t-111.5 385.5zM270 498q0 -181 71.5 -281t203.5 -100q69 0 130.5 33.5t122.5 103.5v520 q-63 57 -121.5 81t-119.5 24q-60 0 -112 -28t-91 -78t-61.5 -119.5t-22.5 -155.5z" />
<glyph unicode="r" horiz-adv-x="710" d="M167 0v995h139l15 -180h6q51 94 123.5 149.5t158.5 55.5q60 0 107 -21l-33 -147q-24 8 -44.5 12t-51.5 4q-64 0 -132.5 -51t-119.5 -178v-639h-168z" />
<glyph unicode="s" horiz-adv-x="858" d="M57 113l84 112q66 -53 134.5 -86t158.5 -33q98 0 147 45.5t49 110.5q0 39 -20.5 67.5t-52 50t-72.5 38t-82 33.5q-53 18 -106.5 41.5t-95.5 57.5t-68.5 79t-26.5 108q0 60 23.5 112t67.5 90t107.5 59.5t143.5 21.5q94 0 173 -33t136 -80l-79 -106q-52 39 -107 63.5 t-121 24.5q-94 0 -138 -43t-44 -101q0 -34 18.5 -60t49 -45t70.5 -34.5t83 -32.5q53 -20 107.5 -42.5t97.5 -56.5t70.5 -83t27.5 -119q0 -61 -23.5 -114.5t-69.5 -94t-114.5 -64.5t-156.5 -24q-107 0 -203 39t-168 99z" />
<glyph unicode="t" horiz-adv-x="692" d="M49 858v127l156 10l20 279h141v-279h269v-137h-269v-553q0 -92 34 -142t120 -50q27 0 57.5 8t55.5 18l32 -127q-41 -14 -89 -25.5t-95 -11.5q-80 0 -134 25t-88 68t-48.5 104t-14.5 135v551h-147z" />
<glyph unicode="u" horiz-adv-x="1114" d="M153 365v630h170v-608q0 -141 44 -203.5t142 -62.5q78 0 137.5 40t131.5 128v706h168v-995h-140l-14 156h-6q-70 -82 -146.5 -131.5t-181.5 -49.5q-160 0 -232.5 98.5t-72.5 291.5z" />
<glyph unicode="v" horiz-adv-x="956" d="M24 995h174l188 -565q23 -74 46.5 -147.5t46.5 -145.5h8q22 72 44.5 145.5t45.5 147.5l188 565h166l-352 -995h-197z" />
<glyph unicode="w" horiz-adv-x="1470" d="M49 995h172l147 -575q17 -72 31.5 -139.5t28.5 -137.5h8q16 70 32.5 138.5t35.5 138.5l153 575h164l156 -575q18 -72 35.5 -139.5t33.5 -137.5h9q16 70 30.5 137.5t30.5 139.5l145 575h160l-266 -995h-205l-143 535q-19 71 -34 140.5t-34 145.5h-8q-16 -76 -32.5 -146.5 t-37.5 -142.5l-139 -532h-197z" />
<glyph unicode="x" horiz-adv-x="913" d="M28 0l326 520l-301 475h182l133 -219q22 -41 47 -83t51 -83h8q23 41 45.5 83t45.5 83l120 219h177l-302 -493l324 -502h-182l-146 231q-26 45 -52.5 90.5t-55.5 88.5h-8q-27 -43 -51.5 -87t-49.5 -92l-135 -231h-176z" />
<glyph unicode="y" horiz-adv-x="956" d="M24 995h174l203 -551q22 -65 48 -138t48 -142h8q23 67 43.5 141t40.5 139l178 551h164l-375 -1077q-26 -74 -59 -137.5t-78 -109.5t-102 -72.5t-133 -26.5q-35 0 -63.5 5t-53.5 15l33 134q16 -5 36.5 -10t39.5 -5q86 0 140 60.5t85 152.5l22 74z" />
<glyph unicode="z" horiz-adv-x="870" d="M63 0v90l524 768h-467v137h680v-90l-524 -768h541v-137h-754z" />
<glyph unicode="{" horiz-adv-x="620" d="M69 516v107q51 0 86 14t54.5 35.5t27.5 50.5t8 57q0 105 -9 195t-9 203q0 157 59 214.5t180 57.5h92v-96h-55q-84 0 -111.5 -43t-27.5 -144q0 -94 6 -180t6 -190q0 -101 -28.5 -153t-94.5 -71v-8q66 -18 94.5 -71.5t28.5 -151.5q0 -104 -6 -190t-6 -181q0 -100 27.5 -143 t111.5 -43h55v-96h-92q-121 0 -180 57t-59 215q0 55 3 105.5t6 97.5l6 94t3 98q0 31 -8 58.5t-27.5 50t-54.5 37t-86 14.5z" />
<glyph unicode="|" horiz-adv-x="493" d="M188 -512v2048h119v-2048h-119z" />
<glyph unicode="}" horiz-adv-x="620" d="M63 -215h53q84 0 112 43t28 143q0 95 -5.5 181t-5.5 190q0 98 28 151.5t93 71.5v8q-65 19 -93 71t-28 153q0 104 5.5 190t5.5 180q0 101 -28 144t-112 43h-53v96h90q62 0 107 -13.5t74.5 -44t44 -83t14.5 -131.5q0 -113 -9.5 -203t-9.5 -195q0 -59 37 -107t139 -50v-107 q-51 0 -84.5 -14.5t-54 -37t-29 -50t-8.5 -58.5q0 -51 3 -98t6.5 -94t6.5 -97.5t3 -105.5q0 -80 -14.5 -132t-44 -83t-74.5 -44t-107 -13h-90v96z" />
<glyph unicode="~" d="M73 641q55 98 122.5 141t133.5 43q61 0 109.5 -26.5t90.5 -59t80.5 -59.5t81.5 -27q46 0 84.5 30t73.5 95l94 -69q-55 -99 -122.5 -141t-133.5 -42q-61 0 -109 27t-90 59.5t-81 59t-82 26.5q-45 0 -84 -29.5t-74 -95.5z" />
<glyph unicode="&#xa1;" horiz-adv-x="591" d="M174 893q0 55 36 91t87 36q49 0 85 -36t36 -91q0 -59 -36 -95t-85 -36q-51 0 -87 36t-36 95zM211 -377l4 193l22 774h117l23 -774l4 -193h-170z" />
<glyph unicode="&#xa2;" d="M124 635q0 106 31.5 190t87 145.5t131.5 99.5t162 50v217h106v-211q90 -4 155.5 -38.5t112.5 -79.5l-81 -107q-41 37 -87.5 59.5t-99.5 26.5v-704q66 4 119 31.5t94 64.5l74 -107q-60 -53 -133.5 -87.5t-153.5 -41.5v-211h-106v213q-93 11 -168.5 48.5t-130 99t-84 147.5 t-29.5 195zM292 635q0 -137 63.5 -227.5t180.5 -116.5v686q-113 -27 -178.5 -117t-65.5 -225z" />
<glyph unicode="&#xa3;" d="M108 584v106l137 8h37q-20 66 -37.5 128.5t-17.5 127.5q0 86 27.5 156t77.5 119t120 75.5t156 26.5q110 0 187 -44t130 -109l-98 -97q-39 47 -88 78t-119 31q-111 0 -169 -66.5t-58 -173.5q0 -65 15 -125.5t34 -126.5h325v-114h-299q5 -29 8 -56.5t3 -58.5 q0 -109 -33 -180.5t-94 -134.5v-9h575v-145h-817v102q104 58 160.5 155t56.5 214q0 29 -4 56.5t-10 56.5h-205z" />
<glyph unicode="&#xa4;" d="M53 303l131 133q-35 47 -54.5 106.5t-19.5 131.5q0 71 19.5 131.5t54.5 107.5l-131 136l90 92l139 -144q99 76 228 76q59 0 118.5 -19.5t106.5 -56.5l139 144l90 -92l-133 -136q35 -47 55.5 -107.5t20.5 -131.5q0 -72 -20.5 -131.5t-55.5 -106.5l133 -133l-90 -92 l-139 141q-47 -39 -106.5 -58.5t-118.5 -19.5q-131 0 -228 78l-139 -141zM266 674q0 -62 19.5 -112t52 -87t78 -56.5t94.5 -19.5t93 19.5t76.5 56.5t52 87t19.5 112q0 61 -19.5 111.5t-52 87t-76.5 56t-93 19.5t-94.5 -19.5t-78 -56t-52 -87t-19.5 -111.5z" />
<glyph unicode="&#xa5;" d="M47 1307h176l160 -351q31 -67 60.5 -135.5t62.5 -140.5h8q35 72 64.5 140.5t60.5 135.5l160 351h172l-336 -656h291v-96h-334v-133h334v-98h-334v-324h-168v324h-332v98h332v133h-332v96h289z" />
<glyph unicode="&#xa6;" horiz-adv-x="493" d="M188 438h119v-950h-119v950zM188 596v940h119v-940h-119z" />
<glyph unicode="&#xa7;" d="M92 702q0 91 49 156.5t127 108.5q-31 32 -48 73t-17 95q0 53 19.5 101t59 85t97 58.5t135.5 21.5q98 0 177 -35t138 -82l-82 -108q-49 41 -104 67.5t-123 26.5q-86 0 -124 -38t-38 -91q0 -56 42 -92.5t105.5 -67.5t136.5 -61.5t136.5 -74.5t105.5 -106.5t42 -156.5 q0 -99 -48.5 -159.5t-126.5 -105.5q29 -34 45.5 -74t16.5 -93q0 -62 -24.5 -113t-68.5 -88t-104.5 -58.5t-132.5 -21.5q-110 0 -200.5 39t-153.5 106l102 92q51 -49 110.5 -77.5t141.5 -28.5t128 41t46 100q0 58 -42 96.5t-104.5 69.5t-136 60.5t-136 72.5t-104.5 105.5 t-42 156.5zM239 713q0 -68 41 -112t103.5 -76.5t135.5 -62.5t136 -67q60 29 91.5 68t31.5 106q0 70 -41 115t-102.5 79t-134 62.5t-136.5 65.5q-59 -33 -92 -74t-33 -104z" />
<glyph unicode="&#xa8;" horiz-adv-x="1110" d="M278 1305q0 43 28.5 71.5t71.5 28.5t72 -28.5t29 -71.5t-29 -72t-72 -29t-71.5 29t-28.5 72zM632 1305q0 43 28 71.5t71 28.5q45 0 72.5 -28.5t27.5 -71.5t-27.5 -72t-72.5 -29q-43 0 -71 29t-28 72z" />
<glyph unicode="&#xa9;" horiz-adv-x="1523" d="M100 662q0 155 53 280t143.5 213t211 135t254.5 47q133 0 252.5 -47t211 -135t144.5 -213t53 -280q0 -158 -53 -284t-144.5 -215t-211 -137.5t-252.5 -48.5q-134 0 -254.5 48.5t-211 137.5t-143.5 215t-53 284zM196 662q0 -136 45 -245.5t122 -188t179.5 -122 t219.5 -43.5q116 0 218.5 43.5t179.5 122t122 188t45 245.5q0 133 -45 242.5t-122 187t-179.5 119.5t-218.5 42q-117 0 -219.5 -42t-179.5 -119.5t-122 -187t-45 -242.5zM405 662q0 88 32 159.5t84 122.5t120.5 78t142.5 27q86 0 146.5 -34t109.5 -83l-72 -80 q-41 41 -83 62.5t-95 21.5q-112 0 -181 -77t-69 -197q0 -136 66.5 -214.5t177.5 -78.5q66 0 115 25.5t94 64.5l61 -86q-57 -49 -120.5 -83t-155.5 -34q-78 0 -145.5 27.5t-119 80t-80 127t-28.5 171.5z" />
<glyph unicode="&#xaa;" horiz-adv-x="706" d="M75 723q0 108 97.5 164.5t310.5 77.5q-2 65 -29 108t-98 43q-54 0 -110 -21.5t-97 -47.5l-47 86q51 32 121.5 60t150.5 28q123 0 179.5 -72t56.5 -203v-401h-103l-14 76h-8q-41 -37 -92.5 -65t-114.5 -28q-92 0 -147.5 53.5t-55.5 141.5zM200 733q0 -53 30.5 -77.5 t84.5 -24.5q79 0 168 82v174q-158 -19 -220.5 -57.5t-62.5 -96.5z" />
<glyph unicode="&#xab;" horiz-adv-x="878" d="M92 453v127l279 317l73 -61l-241 -320l241 -323l-73 -58zM416 453v127l280 317l72 -61l-242 -320l242 -323l-72 -58z" />
<glyph unicode="&#xac;" d="M69 612v127h879v-526h-136v399h-743z" />
<glyph unicode="&#xad;" horiz-adv-x="636" d="M83 449v129h471v-129h-471z" />
<glyph unicode="&#xae;" horiz-adv-x="866" d="M47 1057q0 90 30.5 163.5t83 127t122 83t149.5 29.5t150.5 -29.5t123 -83t83 -127t30.5 -163.5t-30.5 -164t-83 -127t-123 -83t-150.5 -30t-149.5 30t-122 83t-83 127t-30.5 164zM129 1057q0 -74 23.5 -134.5t63.5 -103.5t95 -66.5t121 -23.5q64 0 120 23.5t97 66.5 t64.5 103.5t23.5 134.5q0 71 -23.5 131.5t-64.5 104.5t-97 68.5t-120 24.5q-66 0 -121 -24.5t-95 -68.5t-63.5 -104.5t-23.5 -131.5zM285 854v416h155q66 0 113 -30t47 -103q0 -37 -20.5 -69t-55.5 -44l94 -170h-94l-71 143h-84v-143h-84zM369 1063h53q88 0 88 70 q0 30 -18.5 48.5t-65.5 18.5h-57v-137z" />
<glyph unicode="&#xaf;" horiz-adv-x="1110" d="M305 1231v117h502v-117h-502z" />
<glyph unicode="&#xb0;" horiz-adv-x="677" d="M83 1139q0 61 20.5 109t56.5 83t82 53.5t97 18.5t97 -18.5t82 -53.5t56.5 -83t20.5 -109q0 -60 -20.5 -108t-56.5 -82t-82 -52t-97 -18t-97 18t-82 52t-56.5 82t-20.5 108zM185 1139q0 -72 43 -119t111 -47t111 47t43 119q0 75 -43 122.5t-111 47.5t-111 -47.5 t-43 -122.5z" />
<glyph unicode="&#xb1;" d="M69 0v127h879v-127h-879zM69 623v127h373v389h133v-389h373v-127h-373v-363h-133v363h-373z" />
<glyph unicode="&#xb4;" horiz-adv-x="1110" d="M421 1174l184 288h176l-231 -288h-129z" />
<glyph unicode="&#xb6;" horiz-adv-x="1146" d="M83 907q0 121 37 204t103.5 135t156.5 74.5t197 22.5h90v-880h-68q-110 0 -205.5 25.5t-164 80t-107.5 138.5t-39 200zM777 -164v1507h172v-1507h-172z" />
<glyph unicode="&#xb7;" horiz-adv-x="509" d="M133 657q0 60 36 95.5t87 35.5q49 0 85 -35.5t36 -95.5q0 -55 -36 -91t-85 -36q-51 0 -87 36t-36 91z" />
<glyph unicode="&#xb8;" horiz-adv-x="1110" d="M395 -352q80 10 131 33.5t51 64.5t-33.5 62.5t-97.5 37.5l82 160h111l-54 -108q52 -17 86.5 -49.5t34.5 -96.5q0 -45 -24.5 -77.5t-65.5 -55t-94 -36t-111 -19.5z" />
<glyph unicode="&#xba;" horiz-adv-x="747" d="M61 874q0 82 24.5 146.5t67.5 109t99.5 68t119.5 23.5q64 0 120 -23.5t99 -68t68 -109t25 -146.5q0 -81 -25 -145.5t-68 -109t-99 -68t-120 -23.5q-63 0 -119.5 23.5t-99.5 68t-67.5 109t-24.5 145.5zM190 874q0 -108 48 -174.5t134 -66.5t133.5 66.5t47.5 174.5 q0 111 -47.5 176.5t-133.5 65.5t-134 -65.5t-48 -176.5z" />
<glyph unicode="&#xbb;" horiz-adv-x="878" d="M110 193l242 323l-242 320l72 61l280 -317v-127l-280 -318zM434 193l241 323l-241 320l73 61l279 -317v-127l-279 -318z" />
<glyph unicode="&#xbc;" horiz-adv-x="1599" d="M129 1176v86q68 12 112 31.5t85 49.5h108v-798h-131v631h-174zM369 -25l741 1393h115l-742 -1393h-114zM934 213v68l334 518h147v-492h119v-94h-119v-213h-119v213h-362zM1069 307h227v144l11 223h-9l-102 -166z" />
<glyph unicode="&#xbd;" horiz-adv-x="1654" d="M129 1176v86q68 12 112 31.5t85 49.5h108v-798h-131v631h-174zM328 -25l741 1393h115l-742 -1393h-114zM985 668q47 69 115.5 112t150.5 43q121 0 194 -65.5t73 -192.5q0 -57 -23 -110.5t-62.5 -107.5t-94 -111.5t-117.5 -122.5h338v-113h-549v76q92 84 163.5 150.5 t118.5 121.5t72 103.5t25 93.5q0 78 -41 123t-113 45q-51 0 -94 -34t-78 -83z" />
<glyph unicode="&#xbe;" horiz-adv-x="1630" d="M69 678l86 65q37 -55 89 -86.5t114 -31.5q65 0 112.5 37.5t47.5 105.5q0 70 -65 105.5t-183 35.5v84q104 0 160.5 41t56.5 103q0 59 -39 93t-105 34q-45 0 -87 -27t-76 -70l-78 70q51 59 113.5 95t146.5 36q51 0 98 -14.5t82 -42t55.5 -67.5t20.5 -91q0 -72 -39 -119 t-100 -76q67 -18 118.5 -68t51.5 -130q0 -55 -22.5 -99.5t-60.5 -76t-90.5 -48t-109.5 -16.5q-98 0 -174 45t-123 113zM446 -25l741 1393h113l-742 -1393h-112zM962 213v68l336 518h147v-492h119v-94h-119v-213h-119v213h-364zM1099 307h227v144l11 223h-8l-103 -166z" />
<glyph unicode="&#xbf;" horiz-adv-x="870" d="M98 -74q0 68 24.5 123t60.5 104.5t76 97.5t72.5 99t51 109.5t10.5 130.5h149q11 -80 -5.5 -144.5t-47.5 -119t-70.5 -101.5t-74.5 -93t-58.5 -94t-23.5 -101q0 -82 49 -139.5t149 -57.5q68 0 127.5 30.5t106.5 86.5l98 -88q-65 -72 -149 -121t-195 -49q-160 0 -255 87 t-95 240zM342 893q0 55 35.5 91t87.5 36q49 0 84.5 -36t35.5 -91q0 -59 -35.5 -95t-84.5 -36q-52 0 -87.5 36t-35.5 95z" />
<glyph unicode="&#xc0;" horiz-adv-x="1114" d="M6 0l455 1343h192l455 -1343h-182l-127 410h-490l-129 -410h-174zM285 1675h192l180 -229h-141zM352 547h404l-64 205q-37 112 -69.5 223.5t-65.5 228.5h-8q-31 -117 -64 -228.5t-69 -223.5z" />
<glyph unicode="&#xc1;" horiz-adv-x="1114" d="M6 0l455 1343h192l455 -1343h-182l-127 410h-490l-129 -410h-174zM352 547h404l-64 205q-37 112 -69.5 223.5t-65.5 228.5h-8q-31 -117 -64 -228.5t-69 -223.5zM448 1446l181 229h192l-231 -229h-142z" />
<glyph unicode="&#xc2;" horiz-adv-x="1114" d="M6 0l455 1343h192l455 -1343h-182l-127 410h-490l-129 -410h-174zM276 1446l197 229h162l196 -229h-137l-137 139h-8l-137 -139h-136zM352 547h404l-64 205q-37 112 -69.5 223.5t-65.5 228.5h-8q-31 -117 -64 -228.5t-69 -223.5z" />
<glyph unicode="&#xc3;" horiz-adv-x="1114" d="M6 0l455 1343h192l455 -1343h-182l-127 410h-490l-129 -410h-174zM258 1456q8 96 53 158.5t119 62.5q41 0 73.5 -16t60.5 -36.5t54.5 -37t55.5 -16.5q65 0 82 106h94q-10 -94 -55.5 -157.5t-116.5 -63.5q-41 0 -74 16.5t-60.5 37t-54 37t-55.5 16.5q-66 0 -84 -107h-92z M352 547h404l-64 205q-37 112 -69.5 223.5t-65.5 228.5h-8q-31 -117 -64 -228.5t-69 -223.5z" />
<glyph unicode="&#xc4;" horiz-adv-x="1114" d="M6 0l455 1343h192l455 -1343h-182l-127 410h-490l-129 -410h-174zM276 1565q0 45 29 72.5t72 27.5t71.5 -27.5t28.5 -72.5q0 -43 -28.5 -72t-71.5 -29t-72 29t-29 72zM352 547h404l-64 205q-37 112 -69.5 223.5t-65.5 228.5h-8q-31 -117 -64 -228.5t-69 -223.5zM631 1565 q0 45 27.5 72.5t72.5 27.5q43 0 71.5 -27.5t28.5 -72.5q0 -43 -28.5 -72t-71.5 -29q-45 0 -72.5 29t-27.5 72z" />
<glyph unicode="&#xc5;" horiz-adv-x="1114" d="M6 0l455 1343h192l455 -1343h-182l-127 410h-490l-129 -410h-174zM352 547h404l-64 205q-37 112 -69.5 223.5t-65.5 228.5h-8q-31 -117 -64 -228.5t-69 -223.5zM362 1612q0 82 53.5 131t137.5 49q82 0 137 -49t55 -131q0 -84 -55 -132t-137 -48q-84 0 -137.5 48 t-53.5 132zM455 1612q0 -51 28.5 -79t69.5 -28t68.5 28t27.5 79q0 47 -27.5 75.5t-68.5 28.5t-69.5 -28.5t-28.5 -75.5z" />
<glyph unicode="&#xc6;" horiz-adv-x="1683" d="M16 0l705 1343h841v-143h-569v-422h475v-145h-475v-488h590v-145h-762v391h-422l-203 -391h-180zM469 528h352v680h-8q-109 -219 -219 -438z" />
<glyph unicode="&#xc7;" horiz-adv-x="1169" d="M106 672q0 162 45 291t125 219t189.5 138t238.5 48q123 0 215 -50t152 -116l-97 -108q-53 57 -117.5 91t-150.5 34q-96 0 -174 -38t-133 -109t-86 -171t-31 -225q0 -127 30 -228.5t83 -173t130 -110.5t173 -39q98 0 171 39t138 110l96 -104q-69 -80 -154 -129t-190 -61 l-39 -82q52 -17 86.5 -49.5t34.5 -96.5q0 -45 -24.5 -77.5t-65.5 -55t-94 -36t-111 -19.5l-18 84q82 10 132 33.5t50 64.5t-32.5 62.5t-96.5 37.5l68 131q-119 9 -218.5 60t-172 140t-112.5 213t-40 282z" />
<glyph unicode="&#xc8;" horiz-adv-x="1079" d="M184 0v1343h774v-143h-604v-422h510v-145h-510v-488h625v-145h-795zM313 1675h193l180 -229h-142z" />
<glyph unicode="&#xc9;" horiz-adv-x="1079" d="M184 0v1343h774v-143h-604v-422h510v-145h-510v-488h625v-145h-795zM477 1446l180 229h193l-232 -229h-141z" />
<glyph unicode="&#xca;" horiz-adv-x="1079" d="M184 0v1343h774v-143h-604v-422h510v-145h-510v-488h625v-145h-795zM305 1446l196 229h162l197 -229h-137l-138 139h-8l-137 -139h-135z" />
<glyph unicode="&#xcb;" horiz-adv-x="1079" d="M184 0v1343h774v-143h-604v-422h510v-145h-510v-488h625v-145h-795zM305 1565q0 45 28.5 72.5t71.5 27.5t72 -27.5t29 -72.5q0 -43 -29 -72t-72 -29t-71.5 29t-28.5 72zM659 1565q0 45 27.5 72.5t72.5 27.5q43 0 72 -27.5t29 -72.5q0 -43 -29 -72t-72 -29q-45 0 -72.5 29 t-27.5 72z" />
<glyph unicode="&#xcc;" horiz-adv-x="538" d="M0 1675h193l182 -229h-142zM184 0v1343h170v-1343h-170z" />
<glyph unicode="&#xcd;" horiz-adv-x="538" d="M163 1446l180 229h193l-232 -229h-141zM183 0v1343h170v-1343h-170z" />
<glyph unicode="&#xce;" horiz-adv-x="538" d="M-8 1446l197 229h161l197 -229h-137l-137 139h-9l-137 -139h-135zM185 0v1343h169v-1343h-169z" />
<glyph unicode="&#xcf;" horiz-adv-x="538" d="M-8 1565q0 45 28.5 72.5t71.5 27.5t72 -27.5t29 -72.5q0 -43 -29 -72t-72 -29t-71.5 29t-28.5 72zM185 0v1343h169v-1343h-169zM346 1565q0 45 28 72.5t73 27.5q43 0 71.5 -27.5t28.5 -72.5q0 -43 -28.5 -72t-71.5 -29q-45 0 -73 29t-28 72z" />
<glyph unicode="&#xd0;" horiz-adv-x="1306" d="M67 657v88l162 9v589h336q311 0 473 -172t162 -493q0 -160 -41 -286t-121 -213t-197 -133t-268 -46h-344v657h-162zM399 139h153q236 0 353.5 141.5t117.5 397.5t-117.5 391t-353.5 135h-153v-450h305v-97h-305v-518z" />
<glyph unicode="&#xd1;" horiz-adv-x="1325" d="M184 0v1343h176l486 -843l145 -279h8q-6 103 -13 212.5t-7 215.5v694h161v-1343h-176l-487 846l-146 276h-8q8 -102 15.5 -207.5t7.5 -212.5v-702h-162zM372 1456q11 96 56 158.5t116 62.5q41 0 74 -16t60.5 -36.5t54 -37t55.5 -16.5q66 0 84 106h92q-10 -94 -55 -157.5 t-117 -63.5q-41 0 -73.5 16.5t-60.5 37t-54.5 37t-54.5 16.5q-66 0 -84 -107h-93z" />
<glyph unicode="&#xd2;" horiz-adv-x="1359" d="M106 678q0 162 42 290t118 217t181 136t232 47t232.5 -48t182.5 -137t119 -217t42 -288q0 -162 -42 -292t-119 -221t-182.5 -140.5t-232.5 -49.5t-232 49.5t-181 140.5t-118 221t-42 292zM282 678q0 -127 28.5 -228.5t81 -174t125 -111.5t162.5 -39q91 0 163.5 39 t124.5 111.5t81 174t29 228.5q0 125 -29 225.5t-81 170t-124.5 107.5t-163.5 38q-90 0 -162.5 -38t-125 -107.5t-81 -170t-28.5 -225.5zM411 1675h193l180 -229h-141z" />
<glyph unicode="&#xd3;" horiz-adv-x="1359" d="M106 678q0 162 42 290t118 217t181 136t232 47t232.5 -48t182.5 -137t119 -217t42 -288q0 -162 -42 -292t-119 -221t-182.5 -140.5t-232.5 -49.5t-232 49.5t-181 140.5t-118 221t-42 292zM282 678q0 -127 28.5 -228.5t81 -174t125 -111.5t162.5 -39q91 0 163.5 39 t124.5 111.5t81 174t29 228.5q0 125 -29 225.5t-81 170t-124.5 107.5t-163.5 38q-90 0 -162.5 -38t-125 -107.5t-81 -170t-28.5 -225.5zM575 1446l180 229h193l-232 -229h-141z" />
<glyph unicode="&#xd4;" horiz-adv-x="1359" d="M106 678q0 162 42 290t118 217t181 136t232 47t232.5 -48t182.5 -137t119 -217t42 -288q0 -162 -42 -292t-119 -221t-182.5 -140.5t-232.5 -49.5t-232 49.5t-181 140.5t-118 221t-42 292zM282 678q0 -127 28.5 -228.5t81 -174t125 -111.5t162.5 -39q91 0 163.5 39 t124.5 111.5t81 174t29 228.5q0 125 -29 225.5t-81 170t-124.5 107.5t-163.5 38q-90 0 -162.5 -38t-125 -107.5t-81 -170t-28.5 -225.5zM401 1446l197 229h163l197 -229h-137l-137 139h-9l-137 -139h-137z" />
<glyph unicode="&#xd5;" horiz-adv-x="1359" d="M106 678q0 162 42 290t118 217t181 136t232 47t232.5 -48t182.5 -137t119 -217t42 -288q0 -162 -42 -292t-119 -221t-182.5 -140.5t-232.5 -49.5t-232 49.5t-181 140.5t-118 221t-42 292zM282 678q0 -127 28.5 -228.5t81 -174t125 -111.5t162.5 -39q91 0 163.5 39 t124.5 111.5t81 174t29 228.5q0 125 -29 225.5t-81 170t-124.5 107.5t-163.5 38q-90 0 -162.5 -38t-125 -107.5t-81 -170t-28.5 -225.5zM382 1456q11 96 56 158.5t119 62.5q41 0 73.5 -16t60 -36.5t54.5 -37t55 -16.5q29 0 51.5 27.5t30.5 78.5h94q-10 -94 -55 -157.5 t-119 -63.5q-41 0 -72.5 16.5t-60 37t-55.5 37t-53 16.5q-66 0 -84 -107h-95z" />
<glyph unicode="&#xd6;" horiz-adv-x="1359" d="M106 678q0 162 42 290t118 217t181 136t232 47t232.5 -48t182.5 -137t119 -217t42 -288q0 -162 -42 -292t-119 -221t-182.5 -140.5t-232.5 -49.5t-232 49.5t-181 140.5t-118 221t-42 292zM282 678q0 -127 28.5 -228.5t81 -174t125 -111.5t162.5 -39q91 0 163.5 39 t124.5 111.5t81 174t29 228.5q0 125 -29 225.5t-81 170t-124.5 107.5t-163.5 38q-90 0 -162.5 -38t-125 -107.5t-81 -170t-28.5 -225.5zM403 1565q0 45 27.5 72.5t72.5 27.5q43 0 72 -27.5t29 -72.5q0 -43 -29 -72t-72 -29q-45 0 -72.5 29t-27.5 72zM755 1565q0 45 29 72.5 t72 27.5q45 0 72.5 -27.5t27.5 -72.5q0 -43 -27.5 -72t-72.5 -29q-43 0 -72 29t-29 72z" />
<glyph unicode="&#xd7;" d="M102 350l317 326l-317 323l90 93l318 -326l315 326l90 -93l-317 -323l317 -326l-90 -92l-315 328l-318 -328z" />
<glyph unicode="&#xd8;" horiz-adv-x="1359" d="M102 12l143 187q-65 90 -100 210.5t-35 268.5q0 162 42 290t119 217t182.5 136t232.5 47q213 0 358 -129l129 166l94 -72l-141 -184q63 -88 98 -206t35 -265q0 -162 -42 -292t-118.5 -221t-182 -140.5t-230.5 -49.5q-107 0 -198 34t-163 100l-129 -170zM286 678 q0 -197 70 -336l590 766q-105 111 -260 111q-90 0 -164 -38t-126 -107.5t-81 -170t-29 -225.5zM426 238q51 -54 116.5 -83.5t143.5 -29.5q90 0 162.5 39t125 111.5t81 174t28.5 228.5q0 98 -17.5 180t-50.5 148z" />
<glyph unicode="&#xd9;" horiz-adv-x="1320" d="M178 555v788h170v-792q0 -121 24.5 -203t66.5 -131t99.5 -70.5t122.5 -21.5q68 0 125.5 21.5t100.5 70.5t67.5 131t24.5 203v792h164v-788q0 -162 -37 -272.5t-101.5 -179t-152.5 -98.5t-191 -30q-102 0 -191 30t-153.5 98.5t-101.5 179t-37 272.5zM393 1675h193 l180 -229h-142z" />
<glyph unicode="&#xda;" horiz-adv-x="1320" d="M178 555v788h170v-792q0 -121 24.5 -203t66.5 -131t99.5 -70.5t122.5 -21.5q68 0 125.5 21.5t100.5 70.5t67.5 131t24.5 203v792h164v-788q0 -162 -37 -272.5t-101.5 -179t-152.5 -98.5t-191 -30q-102 0 -191 30t-153.5 98.5t-101.5 179t-37 272.5zM557 1446l180 229h193 l-232 -229h-141z" />
<glyph unicode="&#xdb;" horiz-adv-x="1320" d="M178 555v788h170v-792q0 -121 24.5 -203t66.5 -131t99.5 -70.5t122.5 -21.5q68 0 125.5 21.5t100.5 70.5t67.5 131t24.5 203v792h164v-788q0 -162 -37 -272.5t-101.5 -179t-152.5 -98.5t-191 -30q-102 0 -191 30t-153.5 98.5t-101.5 179t-37 272.5zM383 1446l196 229h162 l197 -229h-135l-138 139h-8l-137 -139h-137z" />
<glyph unicode="&#xdc;" horiz-adv-x="1320" d="M178 555v788h170v-792q0 -121 24.5 -203t66.5 -131t99.5 -70.5t122.5 -21.5q68 0 125.5 21.5t100.5 70.5t67.5 131t24.5 203v792h164v-788q0 -162 -37 -272.5t-101.5 -179t-152.5 -98.5t-191 -30q-102 0 -191 30t-153.5 98.5t-101.5 179t-37 272.5zM383 1565 q0 45 28.5 72.5t71.5 27.5q45 0 73 -27.5t28 -72.5q0 -43 -28 -72t-73 -29q-43 0 -71.5 29t-28.5 72zM737 1565q0 45 28.5 72.5t71.5 27.5t72 -27.5t29 -72.5q0 -43 -29 -72t-72 -29t-71.5 29t-28.5 72z" />
<glyph unicode="&#xdd;" horiz-adv-x="974" d="M-2 1343h182l174 -378q33 -74 64 -145.5t65 -147.5h9q34 76 69 147.5t66 145.5l172 378h178l-404 -823v-520h-172v520zM383 1446l180 229h193l-232 -229h-141z" />
<glyph unicode="&#xde;" horiz-adv-x="1193" d="M184 0v1343h170v-225h242q110 0 202.5 -20.5t157 -67.5t100 -121.5t35.5 -185.5q0 -107 -35.5 -185.5t-101 -130t-157 -76t-201.5 -24.5h-242v-307h-170zM354 446h221q176 0 261 66t85 211t-86 200.5t-260 55.5h-221v-533z" />
<glyph unicode="&#xdf;" horiz-adv-x="1179" d="M167 0v1055q0 192 104.5 308t296.5 116q80 0 142.5 -23.5t105.5 -64.5t64.5 -95.5t21.5 -115.5q0 -78 -28.5 -132.5t-64.5 -99.5t-64.5 -87t-28.5 -95q0 -49 29.5 -82t74.5 -58.5t97.5 -52t97.5 -63.5t74.5 -92.5t29.5 -136.5q0 -66 -22.5 -121.5t-65.5 -96t-103.5 -64.5 t-135.5 -24q-86 0 -156 27t-133 74l67 119q54 -45 106 -67t112 -22q86 0 129 49.5t43 114.5q0 60 -30 99t-75 67.5t-97 54t-97 58.5t-75 79t-30 117q0 70 27.5 119t61.5 94.5t62.5 92.5t28.5 112q0 78 -42 128t-128 50q-110 0 -170.5 -78.5t-60.5 -238.5v-1024h-168z" />
<glyph unicode="&#xe0;" horiz-adv-x="1048" d="M118 258q0 164 146.5 251t465.5 122q0 47 -9 92t-32.5 80t-62.5 56.5t-100 21.5q-89 0 -163.5 -33t-133.5 -74l-68 117q70 45 170 87t221 42q182 0 264 -111.5t82 -298.5v-610h-139l-14 119h-4q-72 -60 -155 -102t-175 -42q-127 0 -210 74t-83 209zM284 270 q0 -86 50 -122.5t124 -36.5q72 0 136.5 33.5t135.5 99.5v276q-125 -16 -211 -38.5t-138 -53.5t-74.5 -71t-22.5 -87zM323 1462h176l184 -288h-129z" />
<glyph unicode="&#xe1;" horiz-adv-x="1048" d="M118 258q0 164 146.5 251t465.5 122q0 47 -9 92t-32.5 80t-62.5 56.5t-100 21.5q-89 0 -163.5 -33t-133.5 -74l-68 117q70 45 170 87t221 42q182 0 264 -111.5t82 -298.5v-610h-139l-14 119h-4q-72 -60 -155 -102t-175 -42q-127 0 -210 74t-83 209zM284 270 q0 -86 50 -122.5t124 -36.5q72 0 136.5 33.5t135.5 99.5v276q-125 -16 -211 -38.5t-138 -53.5t-74.5 -71t-22.5 -87zM417 1174l184 288h176l-231 -288h-129z" />
<glyph unicode="&#xe2;" horiz-adv-x="1048" d="M118 258q0 164 146.5 251t465.5 122q0 47 -9 92t-32.5 80t-62.5 56.5t-100 21.5q-89 0 -163.5 -33t-133.5 -74l-68 117q70 45 170 87t221 42q182 0 264 -111.5t82 -298.5v-610h-139l-14 119h-4q-72 -60 -155 -102t-175 -42q-127 0 -210 74t-83 209zM284 270 q0 -86 50 -122.5t124 -36.5q72 0 136.5 33.5t135.5 99.5v276q-125 -16 -211 -38.5t-138 -53.5t-74.5 -71t-22.5 -87zM288 1174l192 288h140l194 -288h-123l-137 186h-8l-137 -186h-121z" />
<glyph unicode="&#xe3;" horiz-adv-x="1048" d="M118 258q0 164 146.5 251t465.5 122q0 47 -9 92t-32.5 80t-62.5 56.5t-100 21.5q-89 0 -163.5 -33t-133.5 -74l-68 117q70 45 170 87t221 42q182 0 264 -111.5t82 -298.5v-610h-139l-14 119h-4q-72 -60 -155 -102t-175 -42q-127 0 -210 74t-83 209zM265 1186 q11 92 51 154.5t117 62.5q39 0 71 -16.5t59.5 -36t52 -36t49.5 -16.5q57 0 76 105h96q-10 -92 -51 -154.5t-117 -62.5q-39 0 -70.5 16.5t-59.5 35.5t-52.5 35.5t-51.5 16.5q-59 0 -73 -104h-97zM284 270q0 -86 50 -122.5t124 -36.5q72 0 136.5 33.5t135.5 99.5v276 q-125 -16 -211 -38.5t-138 -53.5t-74.5 -71t-22.5 -87z" />
<glyph unicode="&#xe4;" horiz-adv-x="1048" d="M118 258q0 164 146.5 251t465.5 122q0 47 -9 92t-32.5 80t-62.5 56.5t-100 21.5q-89 0 -163.5 -33t-133.5 -74l-68 117q70 45 170 87t221 42q182 0 264 -111.5t82 -298.5v-610h-139l-14 119h-4q-72 -60 -155 -102t-175 -42q-127 0 -210 74t-83 209zM274 1305 q0 43 28.5 71.5t71.5 28.5t71.5 -28.5t28.5 -71.5t-28.5 -72t-71.5 -29t-71.5 29t-28.5 72zM284 270q0 -86 50 -122.5t124 -36.5q72 0 136.5 33.5t135.5 99.5v276q-125 -16 -211 -38.5t-138 -53.5t-74.5 -71t-22.5 -87zM628 1305q0 43 27.5 71.5t72.5 28.5q43 0 71 -28.5 t28 -71.5t-28 -72t-71 -29q-45 0 -72.5 29t-27.5 72z" />
<glyph unicode="&#xe5;" horiz-adv-x="1048" d="M118 258q0 164 146.5 251t465.5 122q0 47 -9 92t-32.5 80t-62.5 56.5t-100 21.5q-89 0 -163.5 -33t-133.5 -74l-68 117q70 45 170 87t221 42q182 0 264 -111.5t82 -298.5v-610h-139l-14 119h-4q-72 -60 -155 -102t-175 -42q-127 0 -210 74t-83 209zM284 270 q0 -86 50 -122.5t124 -36.5q72 0 136.5 33.5t135.5 99.5v276q-125 -16 -211 -38.5t-138 -53.5t-74.5 -71t-22.5 -87zM360 1300q0 86 53 137.5t137 51.5q86 0 139.5 -51.5t53.5 -137.5t-53.5 -138t-139.5 -52q-84 0 -137 52t-53 138zM452 1300q0 -53 28.5 -83.5t69.5 -30.5 t69.5 30.5t28.5 83.5q0 52 -28.5 82.5t-69.5 30.5t-69.5 -30.5t-28.5 -82.5z" />
<glyph unicode="&#xe6;" horiz-adv-x="1607" d="M118 258q0 164 145.5 251t456.5 122q0 47 -8 92t-31.5 80t-62.5 56.5t-101 21.5q-82 0 -155.5 -33t-132.5 -74l-68 117q70 45 168 87t209 42q110 0 182 -56.5t103 -154.5q59 98 142 154.5t185 56.5q92 0 163 -33t119 -94.5t72.5 -148.5t24.5 -193q0 -57 -6 -94h-645 q2 -78 27.5 -141.5t66.5 -108.5t96.5 -69.5t118.5 -24.5q72 0 129 23.5t113 58.5l61 -117q-65 -41 -143 -72t-180 -31q-125 0 -209 56.5t-142 130.5q-102 -92 -205.5 -139.5t-199.5 -47.5q-127 0 -210 74t-83 209zM284 270q0 -86 50 -122.5t124 -36.5q70 0 151.5 39.5 t149.5 113.5q-16 39 -26.5 93.5t-12.5 111.5v51q-119 -16 -202 -38.5t-135 -53.5t-75.5 -71t-23.5 -87zM878 569h504q0 154 -60.5 236t-175.5 82q-104 0 -179 -85t-89 -233z" />
<glyph unicode="&#xe7;" horiz-adv-x="933" d="M94 496q0 125 39 222t104.5 164.5t152.5 102.5t183 35q99 0 169.5 -36t121.5 -83l-84 -108q-45 38 -93 63t-108 25q-67 0 -124.5 -28t-98.5 -79t-64.5 -121.5t-23.5 -156.5t22.5 -156t62.5 -120t97.5 -77.5t124.5 -27.5q72 0 130.5 29.5t103.5 70.5l76 -111 q-58 -51 -127.5 -83.5t-143.5 -40.5l-39 -82q49 -17 85 -49.5t36 -96.5q0 -45 -24.5 -77.5t-65.5 -55t-95.5 -36t-111.5 -19.5l-16 84q80 10 131 33.5t51 64.5t-34 62.5t-97 37.5l68 134q-89 10 -163.5 49t-129 104.5t-85 156.5t-30.5 206z" />
<glyph unicode="&#xe8;" horiz-adv-x="1015" d="M94 496q0 122 38 219.5t100.5 165t142 103.5t165.5 36q95 0 169.5 -33t125 -94.5t77 -147.5t26.5 -192q0 -55 -6 -92h-672q10 -162 99 -256t233 -94q71 0 131.5 21.5t115.5 55.5l60 -110q-66 -41 -145.5 -72t-182.5 -31q-100 0 -187 36t-151.5 102.5t-101.5 163 t-37 219.5zM258 571h532q0 154 -64.5 235t-180.5 81q-54 0 -102 -21.5t-87 -61.5t-64.5 -98.5t-33.5 -134.5zM315 1462h174l187 -288h-131z" />
<glyph unicode="&#xe9;" horiz-adv-x="1015" d="M94 496q0 122 38 219.5t100.5 165t142 103.5t165.5 36q95 0 169.5 -33t125 -94.5t77 -147.5t26.5 -192q0 -55 -6 -92h-672q10 -162 99 -256t233 -94q71 0 131.5 21.5t115.5 55.5l60 -110q-66 -41 -145.5 -72t-182.5 -31q-100 0 -187 36t-151.5 102.5t-101.5 163 t-37 219.5zM258 571h532q0 154 -64.5 235t-180.5 81q-54 0 -102 -21.5t-87 -61.5t-64.5 -98.5t-33.5 -134.5zM407 1174l187 288h174l-232 -288h-129z" />
<glyph unicode="&#xea;" horiz-adv-x="1015" d="M94 496q0 122 38 219.5t100.5 165t142 103.5t165.5 36q95 0 169.5 -33t125 -94.5t77 -147.5t26.5 -192q0 -55 -6 -92h-672q10 -162 99 -256t233 -94q71 0 131.5 21.5t115.5 55.5l60 -110q-66 -41 -145.5 -72t-182.5 -31q-100 0 -187 36t-151.5 102.5t-101.5 163 t-37 219.5zM258 571h532q0 154 -64.5 235t-180.5 81q-54 0 -102 -21.5t-87 -61.5t-64.5 -98.5t-33.5 -134.5zM278 1174l195 288h137l195 -288h-123l-137 186h-9l-137 -186h-121z" />
<glyph unicode="&#xeb;" horiz-adv-x="1015" d="M94 496q0 122 38 219.5t100.5 165t142 103.5t165.5 36q95 0 169.5 -33t125 -94.5t77 -147.5t26.5 -192q0 -55 -6 -92h-672q10 -162 99 -256t233 -94q71 0 131.5 21.5t115.5 55.5l60 -110q-66 -41 -145.5 -72t-182.5 -31q-100 0 -187 36t-151.5 102.5t-101.5 163 t-37 219.5zM258 571h532q0 154 -64.5 235t-180.5 81q-54 0 -102 -21.5t-87 -61.5t-64.5 -98.5t-33.5 -134.5zM264 1305q0 43 28.5 71.5t71.5 28.5t72 -28.5t29 -71.5t-29 -72t-72 -29t-71.5 29t-28.5 72zM618 1305q0 43 28 71.5t73 28.5q43 0 71.5 -28.5t28.5 -71.5 t-28.5 -72t-71.5 -29q-45 0 -73 29t-28 72z" />
<glyph unicode="&#xec;" horiz-adv-x="503" d="M24 1462h176l184 -288h-129zM167 0v995h168v-995h-168z" />
<glyph unicode="&#xed;" horiz-adv-x="503" d="M118 1174l184 288h176l-231 -288h-129zM167 0v995h168v-995h-168z" />
<glyph unicode="&#xee;" horiz-adv-x="503" d="M-10 1174l193 288h139l194 -288h-123l-137 186h-8l-137 -186h-121zM168 0v995h168v-995h-168z" />
<glyph unicode="&#xef;" horiz-adv-x="503" d="M-24 1305q0 43 28.5 71.5t71.5 28.5t72 -28.5t29 -71.5t-29 -72t-72 -29t-71.5 29t-28.5 72zM169 0v995h167v-995h-167zM330 1305q0 43 28 71.5t71 28.5q45 0 72.5 -28.5t27.5 -71.5t-27.5 -72t-72.5 -29q-43 0 -71 29t-28 72z" />
<glyph unicode="&#xf0;" horiz-adv-x="1116" d="M108 455q0 104 33 189t89 145.5t133 93t167 32.5q78 0 149.5 -32.5t124.5 -102.5q-28 127 -84.5 221.5t-134.5 172.5l-289 -150l-49 84l260 133q-106 82 -229 148l78 106q74 -41 145.5 -86t136.5 -100l291 149l49 -84l-264 -135q123 -125 201 -297t78 -416 q0 -123 -32 -224t-90 -174t-139 -113t-182 -40q-86 0 -165.5 33t-141 95.5t-98.5 151.5t-37 200zM268 455q0 -78 22.5 -140.5t62.5 -106.5t91 -68.5t110 -24.5q70 0 121 29.5t86 83t52.5 128t17.5 164.5q0 29 -1 57.5t-3 55.5q-68 90 -135.5 120.5t-137.5 30.5 q-67 0 -120.5 -24.5t-90 -69.5t-56 -105.5t-19.5 -129.5z" />
<glyph unicode="&#xf1;" horiz-adv-x="1120" d="M167 0v995h139l15 -143h6q71 72 150 120t184 48q157 0 230 -98.5t73 -290.5v-631h-168v608q0 142 -45 204t-144 62q-78 0 -137 -38.5t-135 -114.5v-721h-168zM312 1186q9 92 50 154.5t116 62.5q39 0 71 -16.5t59.5 -36t53 -36t50.5 -16.5q57 0 73 105h97 q-8 -92 -49 -154.5t-117 -62.5q-39 0 -71 16.5t-59.5 35.5t-52 35.5t-51.5 16.5q-57 0 -75 -104h-95z" />
<glyph unicode="&#xf2;" horiz-adv-x="1110" d="M94 496q0 125 38 222t101.5 164.5t146.5 102.5t175 35t175 -35t146.5 -102.5t101.5 -164.5t38 -222q0 -123 -38 -220.5t-101.5 -164t-146.5 -101.5t-175 -35t-175 35t-146.5 101.5t-101.5 164t-38 220.5zM268 496q0 -86 20.5 -156t58.5 -120t91 -77.5t117 -27.5 q63 0 116.5 27.5t91.5 77.5t58.5 120t20.5 156t-20.5 156.5t-58.5 121.5t-91.5 79t-116.5 28q-64 0 -117 -28t-91 -79t-58.5 -121.5t-20.5 -156.5zM327 1462h177l184 -288h-129z" />
<glyph unicode="&#xf3;" horiz-adv-x="1110" d="M94 496q0 125 38 222t101.5 164.5t146.5 102.5t175 35t175 -35t146.5 -102.5t101.5 -164.5t38 -222q0 -123 -38 -220.5t-101.5 -164t-146.5 -101.5t-175 -35t-175 35t-146.5 101.5t-101.5 164t-38 220.5zM268 496q0 -86 20.5 -156t58.5 -120t91 -77.5t117 -27.5 q63 0 116.5 27.5t91.5 77.5t58.5 120t20.5 156t-20.5 156.5t-58.5 121.5t-91.5 79t-116.5 28q-64 0 -117 -28t-91 -79t-58.5 -121.5t-20.5 -156.5zM422 1174l184 288h176l-231 -288h-129z" />
<glyph unicode="&#xf4;" horiz-adv-x="1110" d="M94 496q0 125 38 222t101.5 164.5t146.5 102.5t175 35t175 -35t146.5 -102.5t101.5 -164.5t38 -222q0 -123 -38 -220.5t-101.5 -164t-146.5 -101.5t-175 -35t-175 35t-146.5 101.5t-101.5 164t-38 220.5zM268 496q0 -86 20.5 -156t58.5 -120t91 -77.5t117 -27.5 q63 0 116.5 27.5t91.5 77.5t58.5 120t20.5 156t-20.5 156.5t-58.5 121.5t-91.5 79t-116.5 28q-64 0 -117 -28t-91 -79t-58.5 -121.5t-20.5 -156.5zM293 1174l192 288h139l195 -288h-123l-137 186h-8l-138 -186h-120z" />
<glyph unicode="&#xf5;" horiz-adv-x="1110" d="M94 496q0 125 38 222t101.5 164.5t146.5 102.5t175 35t175 -35t146.5 -102.5t101.5 -164.5t38 -222q0 -123 -38 -220.5t-101.5 -164t-146.5 -101.5t-175 -35t-175 35t-146.5 101.5t-101.5 164t-38 220.5zM268 496q0 -86 20.5 -156t58.5 -120t91 -77.5t117 -27.5 q63 0 116.5 27.5t91.5 77.5t58.5 120t20.5 156t-20.5 156.5t-58.5 121.5t-91.5 79t-116.5 28q-64 0 -117 -28t-91 -79t-58.5 -121.5t-20.5 -156.5zM270 1186q8 92 49 154.5t117 62.5q39 0 71.5 -16.5t60.5 -36t52.5 -36t48.5 -16.5q58 0 76 105h94q-8 -92 -49 -154.5 t-116 -62.5q-39 0 -71 16.5t-59.5 35.5t-52 35.5t-51.5 16.5q-59 0 -74 -104h-96z" />
<glyph unicode="&#xf6;" horiz-adv-x="1110" d="M94 496q0 125 38 222t101.5 164.5t146.5 102.5t175 35t175 -35t146.5 -102.5t101.5 -164.5t38 -222q0 -123 -38 -220.5t-101.5 -164t-146.5 -101.5t-175 -35t-175 35t-146.5 101.5t-101.5 164t-38 220.5zM268 496q0 -86 20.5 -156t58.5 -120t91 -77.5t117 -27.5 q63 0 116.5 27.5t91.5 77.5t58.5 120t20.5 156t-20.5 156.5t-58.5 121.5t-91.5 79t-116.5 28q-64 0 -117 -28t-91 -79t-58.5 -121.5t-20.5 -156.5zM278 1305q0 43 29 71.5t72 28.5t71.5 -28.5t28.5 -71.5t-28.5 -72t-71.5 -29t-72 29t-29 72zM633 1305q0 43 27.5 71.5 t70.5 28.5q45 0 72.5 -28.5t27.5 -71.5t-27.5 -72t-72.5 -29q-43 0 -70.5 29t-27.5 72z" />
<glyph unicode="&#xf7;" d="M69 612v127h879v-127h-879zM397 307q0 47 32.5 78t79.5 31t79 -31t32 -78q0 -49 -32 -79.5t-79 -30.5t-79.5 30.5t-32.5 79.5zM397 1044q0 48 32.5 78.5t79.5 30.5t79 -30.5t32 -78.5q0 -49 -32 -79.5t-79 -30.5t-79.5 30.5t-32.5 79.5z" />
<glyph unicode="&#xf8;" horiz-adv-x="1110" d="M94 12l111 133q-52 66 -81.5 153t-29.5 198q0 125 38 222t101.5 164.5t146.5 102.5t175 35q78 0 151.5 -25.5t132.5 -76.5l103 124l74 -59l-111 -133q51 -66 81 -155t30 -199q0 -123 -38 -220.5t-101.5 -164t-146.5 -101.5t-175 -35q-162 0 -285 101l-100 -123zM260 504 q0 -137 47 -232l438 531q-76 82 -190 82q-64 0 -118 -28t-93 -78t-61.5 -120.5t-22.5 -154.5zM364 190q80 -79 191 -79q63 0 117.5 27.5t94.5 77.5t61.5 120t21.5 153q0 138 -49 234z" />
<glyph unicode="&#xf9;" horiz-adv-x="1114" d="M153 365v630h170v-608q0 -141 44 -203.5t142 -62.5q78 0 137.5 40t131.5 128v706h168v-995h-140l-14 156h-6q-70 -82 -146.5 -131.5t-181.5 -49.5q-160 0 -232.5 98.5t-72.5 291.5zM329 1462h176l187 -288h-131z" />
<glyph unicode="&#xfa;" horiz-adv-x="1114" d="M153 365v630h170v-608q0 -141 44 -203.5t142 -62.5q78 0 137.5 40t131.5 128v706h168v-995h-140l-14 156h-6q-70 -82 -146.5 -131.5t-181.5 -49.5q-160 0 -232.5 98.5t-72.5 291.5zM423 1174l187 288h174l-232 -288h-129z" />
<glyph unicode="&#xfb;" horiz-adv-x="1114" d="M153 365v630h170v-608q0 -141 44 -203.5t142 -62.5q78 0 137.5 40t131.5 128v706h168v-995h-140l-14 156h-6q-70 -82 -146.5 -131.5t-181.5 -49.5q-160 0 -232.5 98.5t-72.5 291.5zM294 1174l193 288h139l195 -288h-123l-137 186h-9l-137 -186h-121z" />
<glyph unicode="&#xfc;" horiz-adv-x="1114" d="M153 365v630h170v-608q0 -141 44 -203.5t142 -62.5q78 0 137.5 40t131.5 128v706h168v-995h-140l-14 156h-6q-70 -82 -146.5 -131.5t-181.5 -49.5q-160 0 -232.5 98.5t-72.5 291.5zM280 1305q0 43 28.5 71.5t71.5 28.5t72 -28.5t29 -71.5t-29 -72t-72 -29t-71.5 29 t-28.5 72zM634 1305q0 43 28 71.5t73 28.5q43 0 71.5 -28.5t28.5 -71.5t-28.5 -72t-71.5 -29q-45 0 -73 29t-28 72z" />
<glyph unicode="&#xfd;" horiz-adv-x="956" d="M24 995h174l203 -551q22 -65 48 -138t48 -142h8q23 67 43.5 141t40.5 139l178 551h164l-375 -1077q-26 -74 -59 -137.5t-78 -109.5t-102 -72.5t-133 -26.5q-35 0 -63.5 5t-53.5 15l33 134q16 -5 36.5 -10t39.5 -5q86 0 140 60.5t85 152.5l22 74zM364 1174l184 288h176 l-231 -288h-129z" />
<glyph unicode="&#xfe;" horiz-adv-x="1136" d="M167 -420v1878h168v-397l-2 -170q65 53 143 91t160 38q98 0 173 -36t126 -102.5t76.5 -159.5t25.5 -210q0 -127 -34.5 -226.5t-94 -169t-137.5 -105.5t-164 -36q-71 0 -139 29t-135 82l2 -170v-336h-168zM335 221q68 -57 131 -80.5t113 -23.5q61 0 113.5 27.5t90 77.5 t59 124t21.5 166q0 82 -14 149.5t-46 115.5t-82 75t-120 27q-63 0 -127.5 -35t-138.5 -101v-522z" />
<glyph unicode="&#xff;" horiz-adv-x="956" d="M24 995h174l203 -551q22 -65 48 -138t48 -142h8q23 67 43.5 141t40.5 139l178 551h164l-375 -1077q-26 -74 -59 -137.5t-78 -109.5t-102 -72.5t-133 -26.5q-35 0 -63.5 5t-53.5 15l33 134q16 -5 36.5 -10t39.5 -5q86 0 140 60.5t85 152.5l22 74zM221 1305q0 43 28.5 71.5 t71.5 28.5t71.5 -28.5t28.5 -71.5t-28.5 -72t-71.5 -29t-71.5 29t-28.5 72zM575 1305q0 43 27.5 71.5t70.5 28.5q45 0 73 -28.5t28 -71.5t-28 -72t-73 -29q-43 0 -70.5 29t-27.5 72z" />
<glyph unicode="&#x152;" horiz-adv-x="1734" d="M106 678q0 321 172 493t485 172h850v-143h-569v-422h475v-145h-475v-488h590v-145h-879q-153 0 -273 46t-204 133t-128 213t-44 286zM282 678q0 -258 125 -398.5t369 -140.5h98v1065h-98q-244 0 -369 -135t-125 -391z" />
<glyph unicode="&#x153;" horiz-adv-x="1718" d="M94 496q0 125 37 222t98.5 164.5t143 102.5t172.5 35q114 0 210.5 -63.5t149.5 -186.5q57 117 148.5 183.5t201.5 66.5q92 0 164 -33t121 -94.5t74.5 -148.5t25.5 -193q0 -57 -6 -94h-653q2 -78 27.5 -141.5t67.5 -108.5t98.5 -69.5t119.5 -24.5q72 0 131.5 23.5 t114.5 58.5l61 -117q-65 -41 -145 -72t-182 -31q-117 0 -213.5 65.5t-153.5 182.5q-117 -248 -367 -248q-90 0 -170.5 35t-142 101.5t-97.5 164t-36 220.5zM266 496q0 -86 20.5 -156t57.5 -120t88 -77.5t113 -27.5q61 0 112 27.5t88 77.5t57.5 120t20.5 156t-20.5 156.5 t-57.5 121.5t-88 79t-112 28q-62 0 -113 -28t-88 -79t-57.5 -121.5t-20.5 -156.5zM981 569h512q0 154 -63.5 236t-178.5 82q-104 0 -180 -85t-90 -233z" />
<glyph unicode="&#x178;" horiz-adv-x="974" d="M-2 1343h182l174 -378q33 -74 64 -145.5t65 -147.5h9q34 76 69 147.5t66 145.5l172 378h178l-404 -823v-520h-172v520zM211 1565q0 45 27.5 72.5t72.5 27.5q43 0 71 -27.5t28 -72.5q0 -43 -28 -72t-71 -29q-45 0 -72.5 29t-27.5 72zM563 1565q0 45 29 72.5t72 27.5 t71.5 -27.5t28.5 -72.5q0 -43 -28.5 -72t-71.5 -29t-72 29t-29 72z" />
<glyph unicode="&#x2c6;" horiz-adv-x="1110" d="M292 1174l193 288h139l194 -288h-123l-137 186h-8l-137 -186h-121z" />
<glyph unicode="&#x2dc;" horiz-adv-x="1110" d="M270 1186q8 92 49 154.5t117 62.5q39 0 71.5 -16.5t60.5 -36t52.5 -36t48.5 -16.5q58 0 76 105h94q-8 -92 -49 -154.5t-117 -62.5q-38 0 -70 16.5t-59.5 35.5t-52 35.5t-51.5 16.5q-59 0 -74 -104h-96z" />
<glyph unicode="&#x2000;" horiz-adv-x="896" />
<glyph unicode="&#x2001;" horiz-adv-x="1792" />
<glyph unicode="&#x2002;" horiz-adv-x="896" />
<glyph unicode="&#x2003;" horiz-adv-x="1792" />
<glyph unicode="&#x2004;" horiz-adv-x="597" />
<glyph unicode="&#x2005;" horiz-adv-x="448" />
<glyph unicode="&#x2006;" horiz-adv-x="298" />
<glyph unicode="&#x2007;" horiz-adv-x="298" />
<glyph unicode="&#x2008;" horiz-adv-x="224" />
<glyph unicode="&#x2009;" horiz-adv-x="358" />
<glyph unicode="&#x200a;" horiz-adv-x="99" />
<glyph unicode="&#x2010;" horiz-adv-x="636" d="M83 449v129h471v-129h-471z" />
<glyph unicode="&#x2011;" horiz-adv-x="636" d="M83 449v129h471v-129h-471z" />
<glyph unicode="&#x2012;" horiz-adv-x="636" d="M83 449v129h471v-129h-471z" />
<glyph unicode="&#x2013;" horiz-adv-x="983" d="M83 457v116h815v-116h-815z" />
<glyph unicode="&#x2014;" horiz-adv-x="1638" d="M83 457v116h1470v-116h-1470z" />
<glyph unicode="&#x2018;" horiz-adv-x="509" d="M116 1061q0 123 55.5 213t161.5 151l49 -79q-78 -52 -116.5 -109t-38.5 -145q6 2 18 2q41 0 75 -27t34 -78q0 -53 -31 -82.5t-78 -29.5q-61 0 -95 47t-34 137z" />
<glyph unicode="&#x2019;" horiz-adv-x="509" d="M129 961q78 51 116 108t38 148q-7 -3 -17 -3q-43 0 -75.5 27t-32.5 76q0 53 30.5 84t77.5 31q60 0 94.5 -48.5t34.5 -138.5q0 -123 -56 -212t-163 -150z" />
<glyph unicode="&#x201a;" horiz-adv-x="509" d="M129 -219q78 53 116 109.5t38 146.5q-7 -2 -17 -2q-43 0 -75.5 26.5t-32.5 75.5q0 53 30.5 84t77.5 31q60 0 94.5 -48t34.5 -138q0 -123 -56 -212.5t-163 -150.5z" />
<glyph unicode="&#x201c;" horiz-adv-x="872" d="M116 1061q0 123 55.5 213t161.5 151l49 -79q-78 -52 -116.5 -109t-38.5 -145q6 2 18 2q41 0 75 -27t34 -78q0 -53 -31 -82.5t-78 -29.5q-61 0 -95 47t-34 137zM476 1061q0 123 55.5 213t164.5 151l47 -79q-78 -52 -117 -109t-39 -145q6 2 18 2q43 0 76 -27t33 -78 q0 -53 -30.5 -82.5t-78.5 -29.5q-61 0 -95 47t-34 137z" />
<glyph unicode="&#x201d;" horiz-adv-x="872" d="M129 961q78 51 116 108t38 148q-7 -3 -17 -3q-43 0 -75.5 27t-32.5 76q0 53 30.5 84t77.5 31q60 0 94.5 -48.5t34.5 -138.5q0 -123 -56 -212t-163 -150zM489 961q78 51 117 108t39 148q-6 -3 -18 -3q-43 0 -76 27t-33 76q0 53 31 84t78 31q61 0 95 -48.5t34 -138.5 q0 -123 -55.5 -212t-161.5 -150z" />
<glyph unicode="&#x201e;" horiz-adv-x="872" d="M129 -219q78 53 116 109.5t38 146.5q-7 -2 -17 -2q-43 0 -75.5 26.5t-32.5 75.5q0 53 30.5 84t77.5 31q60 0 94.5 -48t34.5 -138q0 -123 -56 -212.5t-163 -150.5zM489 -219q78 53 117 109.5t39 146.5q-6 -2 -18 -2q-43 0 -76 26.5t-33 75.5q0 53 31 84t78 31q61 0 95 -48 t34 -138q0 -238 -217 -363z" />
<glyph unicode="&#x2022;" horiz-adv-x="622" d="M81 539q0 55 18.5 101t50 78t72.5 50t88 18q45 0 87 -18t74 -50t50.5 -78t18.5 -101q0 -56 -18.5 -101t-50.5 -77.5t-74 -50t-87 -17.5q-47 0 -88 17.5t-72.5 50t-50 77.5t-18.5 101z" />
<glyph unicode="&#x2026;" horiz-adv-x="1941" d="M192 102q0 60 36 95.5t87 35.5q49 0 85 -35.5t36 -95.5q0 -55 -36 -91t-85 -36q-51 0 -87 36t-36 91zM878 102q0 60 36 95.5t87 35.5q49 0 85 -35.5t36 -95.5q0 -55 -36 -91t-85 -36q-51 0 -87 36t-36 91zM1564 102q0 60 36 95.5t87 35.5q49 0 85 -35.5t36 -95.5 q0 -55 -36 -91t-85 -36q-51 0 -87 36t-36 91z" />
<glyph unicode="&#x202f;" horiz-adv-x="358" />
<glyph unicode="&#x2039;" horiz-adv-x="555" d="M92 453v127l279 317l73 -61l-241 -320l241 -323l-73 -58z" />
<glyph unicode="&#x203a;" horiz-adv-x="555" d="M110 193l242 323l-242 320l72 61l280 -317v-127l-280 -318z" />
<glyph unicode="&#x205f;" horiz-adv-x="448" />
<glyph unicode="&#x20ac;" d="M47 481v88l121 9q-2 18 -2 36.5v36.5v33t2 33h-121v90l131 10q19 121 62 216t107.5 162t149.5 101.5t185 34.5q92 0 172 -46t133 -114l-100 -96q-43 53 -94.5 87t-116.5 34q-135 0 -218 -100.5t-108 -278.5h520v-100h-528q-2 -15 -2 -29v-31v-39.5t2 -37.5h446v-99h-436 q27 -174 105.5 -272t205.5 -98q76 0 132.5 36.5t109.5 108.5l100 -90q-67 -90 -153 -140.5t-199 -50.5q-92 0 -171 34t-140.5 99.5t-103 158.5t-60.5 214h-131z" />
<glyph unicode="&#x2122;" horiz-adv-x="1304" d="M6 1274v110h530v-110h-204v-524h-123v524h-203zM635 750v634h153l95 -229l55 -162h8l55 162l92 229h152v-634h-117v280l13 215h-9l-145 -397h-92l-148 397h-8l15 -215v-280h-119z" />
<glyph unicode="&#x25fc;" horiz-adv-x="995" d="M0 0v995h995v-995h-995z" />
</font>
</defs>
</svg>
